<svg width="1220" height="1224" viewBox="0 0 1220 1224" fill="none" xmlns="http://www.w3.org/2000/svg">
<g filter="url(#filter0_f_17_117)">
<path d="M378.762 350.61L381.589 345.938L377.994 341.828L382.666 344.655L386.776 341.059L383.949 345.731L387.544 349.841L382.872 347.014L378.762 350.61Z" fill="white"/>
</g>
<g opacity="0.7" filter="url(#filter1_f_17_117)">
<path d="M476.485 348.821L472.262 345.126L467.462 348.031L471.156 343.808L468.251 339.008L472.474 342.702L477.275 339.797L473.58 344.02L476.485 348.821Z" fill="white"/>
</g>
<g opacity="0.76" filter="url(#filter2_f_17_117)">
<path d="M878.635 327.983L875.149 327.606L873.732 330.814L874.11 327.327L870.902 325.911L874.388 326.288L875.804 323.08L875.427 326.567L878.635 327.983Z" fill="white"/>
</g>
<g opacity="0.7" filter="url(#filter3_f_17_117)">
<path d="M360.156 404.336L358.586 408.186L361.78 410.849L357.93 409.28L355.267 412.473L356.836 408.623L353.643 405.96L357.493 407.53L360.156 404.336Z" fill="white"/>
</g>
<g opacity="0.71" filter="url(#filter4_f_17_117)">
<path d="M805.213 482.67L805.278 487.178L809.593 488.483L805.085 488.547L803.78 492.863L803.716 488.355L799.4 487.05L803.908 486.985L805.213 482.67Z" fill="white"/>
</g>
<g opacity="0.89" filter="url(#filter5_f_17_117)">
<path d="M1149.34 485.921L1144.2 488.52L1145.12 494.208L1142.52 489.066L1136.83 489.985L1141.97 487.386L1141.05 481.698L1143.65 486.84L1149.34 485.921Z" fill="white"/>
</g>
<g opacity="0.72" filter="url(#filter6_f_17_117)">
<path d="M294.337 564.698L291.87 568.472L294.718 571.967L290.944 569.499L287.449 572.348L289.917 568.574L287.068 565.079L290.842 567.546L294.337 564.698Z" fill="white"/>
</g>
<g opacity="0.72" filter="url(#filter7_f_17_117)">
<path d="M768.081 553.648L771.511 549.726L768.814 545.269L772.736 548.699L777.193 546.002L773.763 549.923L776.46 554.381L772.539 550.95L768.081 553.648Z" fill="white"/>
</g>
<g opacity="0.91" filter="url(#filter8_f_17_117)">
<path d="M909.862 525.136L906.763 525.343L906.021 528.359L905.814 525.26L902.798 524.518L905.897 524.311L906.639 521.295L906.846 524.394L909.862 525.136Z" fill="white"/>
</g>
<g opacity="0.84" filter="url(#filter9_f_17_117)">
<path d="M199.846 664.275L197.758 668.718L201.358 672.055L196.915 669.967L193.578 673.568L195.667 669.124L192.066 665.787L196.509 667.876L199.846 664.275Z" fill="white"/>
</g>
<g opacity="0.75" filter="url(#filter10_f_17_117)">
<path d="M506.664 614.284L508.9 609.302L504.831 605.661L509.813 607.897L513.454 603.828L511.217 608.81L515.287 612.451L510.305 610.214L506.664 614.284Z" fill="white"/>
</g>
<g opacity="0.99" filter="url(#filter11_f_17_117)">
<path d="M1204.69 621.362L1207.52 617.043L1204.26 613.043L1208.58 615.867L1212.58 612.607L1209.75 616.926L1213.01 620.926L1208.69 618.102L1204.69 621.362Z" fill="white"/>
</g>
<g opacity="0.71" filter="url(#filter12_f_17_117)">
<path d="M123.496 694.591L127.187 696.021L129.668 692.937L128.238 696.628L131.322 699.109L127.631 697.679L125.15 700.762L126.58 697.072L123.496 694.591Z" fill="white"/>
</g>
<g opacity="0.7" filter="url(#filter13_f_17_117)">
<path d="M601.85 729.964L603.497 724.287L598.586 720.996L604.264 722.643L607.554 717.732L605.907 723.41L610.818 726.7L605.141 725.053L601.85 729.964Z" fill="white"/>
</g>
<g opacity="0.78" filter="url(#filter14_f_17_117)">
<path d="M950.121 713.584L951.571 708.894L947.541 706.09L952.231 707.54L955.035 703.51L953.585 708.2L957.615 711.004L952.925 709.554L950.121 713.584Z" fill="white"/>
</g>
<g opacity="0.81" filter="url(#filter15_f_17_117)">
<path d="M293.568 785.706L291.303 790.118L294.821 793.615L290.409 791.349L286.913 794.867L289.178 790.455L285.66 786.959L290.072 789.224L293.568 785.706Z" fill="white"/>
</g>
<g opacity="0.77" filter="url(#filter16_f_17_117)">
<path d="M423.048 791.159L418.843 788.084L414.637 791.159L417.713 786.954L414.637 782.748L418.843 785.824L423.048 782.748L419.973 786.954L423.048 791.159Z" fill="white"/>
</g>
<g opacity="0.9" filter="url(#filter17_f_17_117)">
<path d="M1145.37 798.897L1146.9 794.233L1142.92 791.359L1147.58 792.891L1150.45 788.91L1148.92 793.574L1152.9 796.448L1148.24 794.916L1145.37 798.897Z" fill="white"/>
</g>
<g opacity="0.85" filter="url(#filter18_f_17_117)">
<path d="M139.235 892.504L144.045 894.868L147.757 891.001L145.392 895.812L149.259 899.523L144.449 897.158L140.737 901.026L143.102 896.215L139.235 892.504Z" fill="white"/>
</g>
<g opacity="0.84" filter="url(#filter19_f_17_117)">
<path d="M771.468 923.513L768.559 926.958L770.96 930.774L767.515 927.865L763.699 930.266L766.608 926.821L764.207 923.005L767.652 925.914L771.468 923.513Z" fill="white"/>
</g>
<g opacity="0.78" filter="url(#filter20_f_17_117)">
<path d="M814.002 898.659L811.828 895.534L808.19 896.658L811.316 894.484L810.191 890.846L812.365 893.972L816.003 892.848L812.877 895.022L814.002 898.659Z" fill="white"/>
</g>
<g opacity="0.75" filter="url(#filter21_f_17_117)">
<path d="M96.6408 1032.57L100.292 1030.48L99.404 1026.36L101.497 1030.01L105.61 1029.13L101.959 1031.22L102.847 1035.33L100.754 1031.68L96.6408 1032.57Z" fill="white"/>
</g>
<g opacity="0.84" filter="url(#filter22_f_17_117)">
<path d="M497.391 1011.72L492.567 1014.48L493.74 1019.92L490.974 1015.09L485.539 1016.27L490.363 1013.5L489.19 1008.07L491.955 1012.89L497.391 1011.72Z" fill="white"/>
</g>
<g opacity="0.9" filter="url(#filter23_f_17_117)">
<path d="M1026.37 989.819L1025.21 995.667L1030.43 998.541L1024.58 997.385L1021.71 1002.61L1022.87 996.76L1017.64 993.886L1023.49 995.042L1026.37 989.819Z" fill="white"/>
</g>
<g opacity="0.81" filter="url(#filter24_f_17_117)">
<path d="M51.297 1058.47L55.2811 1062.77L60.5856 1060.28L56.2865 1064.26L58.7801 1069.57L54.796 1065.27L49.4915 1067.76L53.7906 1063.78L51.297 1058.47Z" fill="white"/>
</g>
<g opacity="0.73" filter="url(#filter25_f_17_117)">
<path d="M647.742 1126.47L647.642 1131.33L652.241 1132.89L647.383 1132.79L645.815 1137.39L645.915 1132.53L641.316 1130.97L646.174 1131.07L647.742 1126.47Z" fill="white"/>
</g>
<g opacity="0.89" filter="url(#filter26_f_17_117)">
<path d="M938.975 1059.31L942.431 1060.65L944.755 1057.76L943.416 1061.22L946.304 1063.55L942.848 1062.21L940.524 1065.09L941.863 1061.64L938.975 1059.31Z" fill="white"/>
</g>
<g opacity="0.81" filter="url(#filter27_f_17_117)">
<path d="M183.237 1135.75L187.498 1134.62L187.716 1130.22L188.843 1134.48L193.247 1134.7L188.985 1135.82L188.768 1140.23L187.64 1135.97L183.237 1135.75Z" fill="white"/>
</g>
<g opacity="0.88" filter="url(#filter28_f_17_117)">
<path d="M562.871 1203.46L566.304 1204.86L568.678 1202.02L567.279 1205.45L570.126 1207.82L566.693 1206.42L564.319 1209.27L565.718 1205.84L562.871 1203.46Z" fill="white"/>
</g>
<g opacity="0.83" filter="url(#filter29_f_17_117)">
<path d="M921.464 1138.82L915.753 1138.9L914.101 1144.37L914.019 1138.66L908.552 1137.01L914.262 1136.93L915.915 1131.46L915.997 1137.17L921.464 1138.82Z" fill="white"/>
</g>
<g style="mix-blend-mode:lighten" filter="url(#filter30_f_17_117)">
<ellipse cx="478.17" cy="546.31" rx="38.4998" ry="344.55" transform="rotate(15.0538 478.17 546.31)" fill="url(#paint0_linear_17_117)" fill-opacity="0.42"/>
</g>
<g style="mix-blend-mode:lighten" filter="url(#filter31_f_17_117)">
<ellipse cx="723.823" cy="605.381" rx="26.2858" ry="447.837" transform="rotate(-15 723.823 605.381)" fill="url(#paint1_linear_17_117)" fill-opacity="0.42"/>
</g>
<g style="mix-blend-mode:lighten" filter="url(#filter32_f_17_117)">
<ellipse cx="613.31" cy="661.073" rx="26.1338" ry="448.091" fill="url(#paint2_linear_17_117)" fill-opacity="0.42"/>
</g>
<g style="mix-blend-mode:lighten" filter="url(#filter33_f_17_117)">
<ellipse cx="592.462" cy="397.387" rx="377.618" ry="220.228" fill="url(#paint3_linear_17_117)" fill-opacity="0.42"/>
</g>
<defs>
<filter id="filter0_f_17_117" x="375.706" y="338.772" width="14.1253" height="14.125" filterUnits="userSpaceOnUse" color-interpolation-filters="sRGB">
<feFlood flood-opacity="0" result="BackgroundImageFix"/>
<feBlend mode="normal" in="SourceGraphic" in2="BackgroundImageFix" result="shape"/>
<feGaussianBlur stdDeviation="1.14375" result="effect1_foregroundBlur_17_117"/>
</filter>
<filter id="filter1_f_17_117" x="465.174" y="336.72" width="14.3882" height="14.388" filterUnits="userSpaceOnUse" color-interpolation-filters="sRGB">
<feFlood flood-opacity="0" result="BackgroundImageFix"/>
<feBlend mode="normal" in="SourceGraphic" in2="BackgroundImageFix" result="shape"/>
<feGaussianBlur stdDeviation="1.14375" result="effect1_foregroundBlur_17_117"/>
</filter>
<filter id="filter2_f_17_117" x="868.614" y="320.793" width="12.3084" height="12.3084" filterUnits="userSpaceOnUse" color-interpolation-filters="sRGB">
<feFlood flood-opacity="0" result="BackgroundImageFix"/>
<feBlend mode="normal" in="SourceGraphic" in2="BackgroundImageFix" result="shape"/>
<feGaussianBlur stdDeviation="1.14375" result="effect1_foregroundBlur_17_117"/>
</filter>
<filter id="filter3_f_17_117" x="351.355" y="402.048" width="12.7122" height="12.7122" filterUnits="userSpaceOnUse" color-interpolation-filters="sRGB">
<feFlood flood-opacity="0" result="BackgroundImageFix"/>
<feBlend mode="normal" in="SourceGraphic" in2="BackgroundImageFix" result="shape"/>
<feGaussianBlur stdDeviation="1.14375" result="effect1_foregroundBlur_17_117"/>
</filter>
<filter id="filter4_f_17_117" x="797.112" y="480.382" width="14.7686" height="14.7686" filterUnits="userSpaceOnUse" color-interpolation-filters="sRGB">
<feFlood flood-opacity="0" result="BackgroundImageFix"/>
<feBlend mode="normal" in="SourceGraphic" in2="BackgroundImageFix" result="shape"/>
<feGaussianBlur stdDeviation="1.14375" result="effect1_foregroundBlur_17_117"/>
</filter>
<filter id="filter5_f_17_117" x="1134.54" y="479.411" width="17.0843" height="17.0845" filterUnits="userSpaceOnUse" color-interpolation-filters="sRGB">
<feFlood flood-opacity="0" result="BackgroundImageFix"/>
<feBlend mode="normal" in="SourceGraphic" in2="BackgroundImageFix" result="shape"/>
<feGaussianBlur stdDeviation="1.14375" result="effect1_foregroundBlur_17_117"/>
</filter>
<filter id="filter6_f_17_117" x="284.781" y="562.41" width="12.2247" height="12.2249" filterUnits="userSpaceOnUse" color-interpolation-filters="sRGB">
<feFlood flood-opacity="0" result="BackgroundImageFix"/>
<feBlend mode="normal" in="SourceGraphic" in2="BackgroundImageFix" result="shape"/>
<feGaussianBlur stdDeviation="1.14375" result="effect1_foregroundBlur_17_117"/>
</filter>
<filter id="filter7_f_17_117" x="765.794" y="542.981" width="13.6871" height="13.6871" filterUnits="userSpaceOnUse" color-interpolation-filters="sRGB">
<feFlood flood-opacity="0" result="BackgroundImageFix"/>
<feBlend mode="normal" in="SourceGraphic" in2="BackgroundImageFix" result="shape"/>
<feGaussianBlur stdDeviation="1.14375" result="effect1_foregroundBlur_17_117"/>
</filter>
<filter id="filter8_f_17_117" x="900.51" y="519.007" width="11.6392" height="11.6392" filterUnits="userSpaceOnUse" color-interpolation-filters="sRGB">
<feFlood flood-opacity="0" result="BackgroundImageFix"/>
<feBlend mode="normal" in="SourceGraphic" in2="BackgroundImageFix" result="shape"/>
<feGaussianBlur stdDeviation="1.14375" result="effect1_foregroundBlur_17_117"/>
</filter>
<filter id="filter9_f_17_117" x="189.778" y="661.988" width="13.8675" height="13.8675" filterUnits="userSpaceOnUse" color-interpolation-filters="sRGB">
<feFlood flood-opacity="0" result="BackgroundImageFix"/>
<feBlend mode="normal" in="SourceGraphic" in2="BackgroundImageFix" result="shape"/>
<feGaussianBlur stdDeviation="1.14375" result="effect1_foregroundBlur_17_117"/>
</filter>
<filter id="filter10_f_17_117" x="502.544" y="601.541" width="15.0306" height="15.0306" filterUnits="userSpaceOnUse" color-interpolation-filters="sRGB">
<feFlood flood-opacity="0" result="BackgroundImageFix"/>
<feBlend mode="normal" in="SourceGraphic" in2="BackgroundImageFix" result="shape"/>
<feGaussianBlur stdDeviation="1.14375" result="effect1_foregroundBlur_17_117"/>
</filter>
<filter id="filter11_f_17_117" x="1201.97" y="610.32" width="13.3298" height="13.3296" filterUnits="userSpaceOnUse" color-interpolation-filters="sRGB">
<feFlood flood-opacity="0" result="BackgroundImageFix"/>
<feBlend mode="normal" in="SourceGraphic" in2="BackgroundImageFix" result="shape"/>
<feGaussianBlur stdDeviation="1.14375" result="effect1_foregroundBlur_17_117"/>
</filter>
<filter id="filter12_f_17_117" x="121.209" y="690.65" width="12.4002" height="12.4" filterUnits="userSpaceOnUse" color-interpolation-filters="sRGB">
<feFlood flood-opacity="0" result="BackgroundImageFix"/>
<feBlend mode="normal" in="SourceGraphic" in2="BackgroundImageFix" result="shape"/>
<feGaussianBlur stdDeviation="1.14375" result="effect1_foregroundBlur_17_117"/>
</filter>
<filter id="filter13_f_17_117" x="596.299" y="715.445" width="16.8067" height="16.8069" filterUnits="userSpaceOnUse" color-interpolation-filters="sRGB">
<feFlood flood-opacity="0" result="BackgroundImageFix"/>
<feBlend mode="normal" in="SourceGraphic" in2="BackgroundImageFix" result="shape"/>
<feGaussianBlur stdDeviation="1.14375" result="effect1_foregroundBlur_17_117"/>
</filter>
<filter id="filter14_f_17_117" x="945.253" y="701.222" width="14.6493" height="14.6495" filterUnits="userSpaceOnUse" color-interpolation-filters="sRGB">
<feFlood flood-opacity="0" result="BackgroundImageFix"/>
<feBlend mode="normal" in="SourceGraphic" in2="BackgroundImageFix" result="shape"/>
<feGaussianBlur stdDeviation="1.14375" result="effect1_foregroundBlur_17_117"/>
</filter>
<filter id="filter15_f_17_117" x="283.372" y="783.419" width="13.7356" height="13.7354" filterUnits="userSpaceOnUse" color-interpolation-filters="sRGB">
<feFlood flood-opacity="0" result="BackgroundImageFix"/>
<feBlend mode="normal" in="SourceGraphic" in2="BackgroundImageFix" result="shape"/>
<feGaussianBlur stdDeviation="1.14375" result="effect1_foregroundBlur_17_117"/>
</filter>
<filter id="filter16_f_17_117" x="412.35" y="780.461" width="12.9859" height="12.9861" filterUnits="userSpaceOnUse" color-interpolation-filters="sRGB">
<feFlood flood-opacity="0" result="BackgroundImageFix"/>
<feBlend mode="normal" in="SourceGraphic" in2="BackgroundImageFix" result="shape"/>
<feGaussianBlur stdDeviation="1.14375" result="effect1_foregroundBlur_17_117"/>
</filter>
<filter id="filter17_f_17_117" x="1140.63" y="786.622" width="14.5621" height="14.5621" filterUnits="userSpaceOnUse" color-interpolation-filters="sRGB">
<feFlood flood-opacity="0" result="BackgroundImageFix"/>
<feBlend mode="normal" in="SourceGraphic" in2="BackgroundImageFix" result="shape"/>
<feGaussianBlur stdDeviation="1.14375" result="effect1_foregroundBlur_17_117"/>
</filter>
<filter id="filter18_f_17_117" x="136.947" y="888.713" width="14.5999" height="14.5999" filterUnits="userSpaceOnUse" color-interpolation-filters="sRGB">
<feFlood flood-opacity="0" result="BackgroundImageFix"/>
<feBlend mode="normal" in="SourceGraphic" in2="BackgroundImageFix" result="shape"/>
<feGaussianBlur stdDeviation="1.14375" result="effect1_foregroundBlur_17_117"/>
</filter>
<filter id="filter19_f_17_117" x="761.411" y="920.718" width="12.3438" height="12.3438" filterUnits="userSpaceOnUse" color-interpolation-filters="sRGB">
<feFlood flood-opacity="0" result="BackgroundImageFix"/>
<feBlend mode="normal" in="SourceGraphic" in2="BackgroundImageFix" result="shape"/>
<feGaussianBlur stdDeviation="1.14375" result="effect1_foregroundBlur_17_117"/>
</filter>
<filter id="filter20_f_17_117" x="805.903" y="888.559" width="12.3877" height="12.3877" filterUnits="userSpaceOnUse" color-interpolation-filters="sRGB">
<feFlood flood-opacity="0" result="BackgroundImageFix"/>
<feBlend mode="normal" in="SourceGraphic" in2="BackgroundImageFix" result="shape"/>
<feGaussianBlur stdDeviation="1.14375" result="effect1_foregroundBlur_17_117"/>
</filter>
<filter id="filter21_f_17_117" x="94.3534" y="1024.08" width="13.5442" height="13.5442" filterUnits="userSpaceOnUse" color-interpolation-filters="sRGB">
<feFlood flood-opacity="0" result="BackgroundImageFix"/>
<feBlend mode="normal" in="SourceGraphic" in2="BackgroundImageFix" result="shape"/>
<feGaussianBlur stdDeviation="1.14375" result="effect1_foregroundBlur_17_117"/>
</filter>
<filter id="filter22_f_17_117" x="483.251" y="1005.78" width="16.4275" height="16.4273" filterUnits="userSpaceOnUse" color-interpolation-filters="sRGB">
<feFlood flood-opacity="0" result="BackgroundImageFix"/>
<feBlend mode="normal" in="SourceGraphic" in2="BackgroundImageFix" result="shape"/>
<feGaussianBlur stdDeviation="1.14375" result="effect1_foregroundBlur_17_117"/>
</filter>
<filter id="filter23_f_17_117" x="1015.36" y="987.531" width="17.3648" height="17.3648" filterUnits="userSpaceOnUse" color-interpolation-filters="sRGB">
<feFlood flood-opacity="0" result="BackgroundImageFix"/>
<feBlend mode="normal" in="SourceGraphic" in2="BackgroundImageFix" result="shape"/>
<feGaussianBlur stdDeviation="1.14375" result="effect1_foregroundBlur_17_117"/>
</filter>
<filter id="filter24_f_17_117" x="47.204" y="1056.19" width="15.6692" height="15.6692" filterUnits="userSpaceOnUse" color-interpolation-filters="sRGB">
<feFlood flood-opacity="0" result="BackgroundImageFix"/>
<feBlend mode="normal" in="SourceGraphic" in2="BackgroundImageFix" result="shape"/>
<feGaussianBlur stdDeviation="1.14375" result="effect1_foregroundBlur_17_117"/>
</filter>
<filter id="filter25_f_17_117" x="639.028" y="1124.18" width="15.501" height="15.5008" filterUnits="userSpaceOnUse" color-interpolation-filters="sRGB">
<feFlood flood-opacity="0" result="BackgroundImageFix"/>
<feBlend mode="normal" in="SourceGraphic" in2="BackgroundImageFix" result="shape"/>
<feGaussianBlur stdDeviation="1.14375" result="effect1_foregroundBlur_17_117"/>
</filter>
<filter id="filter26_f_17_117" x="936.687" y="1055.48" width="11.9048" height="11.9046" filterUnits="userSpaceOnUse" color-interpolation-filters="sRGB">
<feFlood flood-opacity="0" result="BackgroundImageFix"/>
<feBlend mode="normal" in="SourceGraphic" in2="BackgroundImageFix" result="shape"/>
<feGaussianBlur stdDeviation="1.14375" result="effect1_foregroundBlur_17_117"/>
</filter>
<filter id="filter27_f_17_117" x="180.949" y="1127.93" width="14.585" height="14.5853" filterUnits="userSpaceOnUse" color-interpolation-filters="sRGB">
<feFlood flood-opacity="0" result="BackgroundImageFix"/>
<feBlend mode="normal" in="SourceGraphic" in2="BackgroundImageFix" result="shape"/>
<feGaussianBlur stdDeviation="1.14375" result="effect1_foregroundBlur_17_117"/>
</filter>
<filter id="filter28_f_17_117" x="560.584" y="1199.73" width="11.8296" height="11.8299" filterUnits="userSpaceOnUse" color-interpolation-filters="sRGB">
<feFlood flood-opacity="0" result="BackgroundImageFix"/>
<feBlend mode="normal" in="SourceGraphic" in2="BackgroundImageFix" result="shape"/>
<feGaussianBlur stdDeviation="1.14375" result="effect1_foregroundBlur_17_117"/>
</filter>
<filter id="filter29_f_17_117" x="906.265" y="1129.17" width="17.4869" height="17.4866" filterUnits="userSpaceOnUse" color-interpolation-filters="sRGB">
<feFlood flood-opacity="0" result="BackgroundImageFix"/>
<feBlend mode="normal" in="SourceGraphic" in2="BackgroundImageFix" result="shape"/>
<feGaussianBlur stdDeviation="1.14375" result="effect1_foregroundBlur_17_117"/>
</filter>
<filter id="filter30_f_17_117" x="276.705" y="108.897" width="402.93" height="874.827" filterUnits="userSpaceOnUse" color-interpolation-filters="sRGB">
<feFlood flood-opacity="0" result="BackgroundImageFix"/>
<feBlend mode="normal" in="SourceGraphic" in2="BackgroundImageFix" result="shape"/>
<feGaussianBlur stdDeviation="52.2675" result="effect1_foregroundBlur_17_117"/>
</filter>
<filter id="filter31_f_17_117" x="500.606" y="68.2135" width="446.434" height="1074.33" filterUnits="userSpaceOnUse" color-interpolation-filters="sRGB">
<feFlood flood-opacity="0" result="BackgroundImageFix"/>
<feBlend mode="normal" in="SourceGraphic" in2="BackgroundImageFix" result="shape"/>
<feGaussianBlur stdDeviation="52.2675" result="effect1_foregroundBlur_17_117"/>
</filter>
<filter id="filter32_f_17_117" x="482.641" y="108.447" width="261.338" height="1105.25" filterUnits="userSpaceOnUse" color-interpolation-filters="sRGB">
<feFlood flood-opacity="0" result="BackgroundImageFix"/>
<feBlend mode="normal" in="SourceGraphic" in2="BackgroundImageFix" result="shape"/>
<feGaussianBlur stdDeviation="52.2675" result="effect1_foregroundBlur_17_117"/>
</filter>
<filter id="filter33_f_17_117" x="38.6606" y="0.975494" width="1107.6" height="792.822" filterUnits="userSpaceOnUse" color-interpolation-filters="sRGB">
<feFlood flood-opacity="0" result="BackgroundImageFix"/>
<feBlend mode="normal" in="SourceGraphic" in2="BackgroundImageFix" result="shape"/>
<feGaussianBlur stdDeviation="88.0914" result="effect1_foregroundBlur_17_117"/>
</filter>
<linearGradient id="paint0_linear_17_117" x1="478.17" y1="201.761" x2="478.17" y2="890.86" gradientUnits="userSpaceOnUse">
<stop stop-color="white"/>
<stop offset="1" stop-color="white" stop-opacity="0"/>
</linearGradient>
<linearGradient id="paint1_linear_17_117" x1="723.823" y1="157.543" x2="723.823" y2="1053.22" gradientUnits="userSpaceOnUse">
<stop stop-color="white"/>
<stop offset="1" stop-color="white" stop-opacity="0"/>
</linearGradient>
<linearGradient id="paint2_linear_17_117" x1="613.31" y1="212.982" x2="613.31" y2="1109.16" gradientUnits="userSpaceOnUse">
<stop stop-color="white"/>
<stop offset="1" stop-color="white" stop-opacity="0"/>
</linearGradient>
<linearGradient id="paint3_linear_17_117" x1="592.462" y1="177.158" x2="592.462" y2="617.615" gradientUnits="userSpaceOnUse">
<stop stop-color="#EDA6FF"/>
<stop offset="1" stop-color="white" stop-opacity="0"/>
</linearGradient>
</defs>
</svg>
