<?xml version="1.0" standalone="no"?>
<!DOCTYPE svg PUBLIC "-//W3C//DTD SVG 20010904//EN"
 "http://www.w3.org/TR/2001/REC-SVG-20010904/DTD/svg10.dtd">
<svg version="1.0" xmlns="http://www.w3.org/2000/svg"
 width="794.000000pt" height="794.000000pt" viewBox="0 0 794.000000 794.000000"
 preserveAspectRatio="xMidYMid meet">
<metadata>
Created by potrace 1.14, written by Peter Selinger 2001-2017
</metadata>
<g transform="translate(0.000000,794.000000) scale(0.100000,-0.100000)"
fill="#000000" stroke="none">
<path d="M3745 7909 c-27 -4 -68 -10 -89 -13 -111 -16 -266 -67 -396 -130
-412 -200 -727 -597 -923 -1161 -44 -127 -98 -321 -112 -400 -25 -143 -122
-145 -275 -6 l-55 50 -13 -32 c-7 -18 -17 -39 -22 -47 -5 -8 -17 -31 -27 -50
-25 -49 -98 -120 -124 -120 -40 0 -83 60 -112 156 -25 85 -29 103 -42 204 -10
73 -34 178 -51 220 -21 52 -55 55 -84 8 -46 -75 -100 -285 -116 -451 -12 -124
-6 -358 11 -447 3 -13 7 -42 10 -65 9 -58 42 -187 72 -280 141 -438 430 -807
819 -1046 66 -40 276 -149 288 -149 4 0 25 -9 49 -19 39 -18 182 -68 216 -77
9 -2 43 -11 76 -20 33 -9 67 -17 75 -19 8 -2 35 -8 60 -14 25 -5 61 -13 80
-16 19 -3 43 -8 53 -11 25 -8 22 6 -29 108 -163 331 -313 784 -368 1113 -8 47
-25 156 -31 195 -13 93 -20 221 -20 385 0 238 10 340 50 530 146 682 578 1204
1298 1564 37 19 65 36 62 39 -8 8 -277 9 -330 1z"/>
<path d="M5423 7599 c-23 -4 -65 -19 -95 -33 -254 -121 -300 -459 -88 -650
164 -148 439 -119 569 59 61 83 81 142 81 240 0 245 -222 428 -467 384z"/>
<path d="M4861 7474 c-374 -65 -788 -331 -1075 -690 -205 -257 -331 -544 -390
-889 -30 -172 -26 -527 8 -682 4 -15 9 -41 12 -58 12 -69 57 -240 86 -327 53
-160 40 -155 115 -42 150 226 330 443 552 664 462 460 946 740 1454 841 51 10
66 12 197 28 162 20 430 5 610 -34 41 -9 86 -19 99 -21 39 -8 211 -65 291 -96
172 -68 389 -184 583 -313 l29 -18 -16 39 c-26 63 -105 193 -162 269 -253 335
-624 539 -1084 593 -30 4 -138 7 -240 7 -235 0 -315 -8 -545 -56 -77 -16 -187
-42 -245 -59 -58 -17 -122 -36 -142 -42 -109 -31 -151 57 -113 237 8 38 15 71
15 71 0 1 -51 1 -112 0 -95 -1 -119 2 -152 19 -51 26 -59 51 -36 103 25 55 92
126 209 220 252 203 267 274 52 236z"/>
<path d="M1824 7301 c-56 -14 -126 -55 -173 -101 -170 -166 -154 -445 34 -590
199 -154 481 -89 592 138 36 72 38 81 38 172 -1 85 -4 102 -32 162 -39 83
-109 155 -188 193 -50 24 -75 29 -150 31 -49 2 -104 0 -121 -5z"/>
<path d="M563 5963 c-98 -147 -188 -362 -209 -503 -3 -19 -7 -41 -9 -48 -24
-71 -25 -433 0 -504 2 -7 6 -29 9 -48 18 -120 71 -271 156 -445 72 -146 119
-222 232 -373 118 -159 148 -194 325 -369 138 -137 153 -156 153 -186 0 -58
-60 -104 -192 -147 l-67 -21 50 -77 c105 -164 100 -242 -14 -243 -77 -1 -133
14 -317 84 -113 42 -166 58 -218 62 -137 11 59 -233 338 -423 157 -106 437
-232 595 -267 115 -25 224 -46 290 -54 77 -9 408 -8 450 2 11 3 43 8 70 11 28
4 95 18 150 32 359 90 691 284 989 579 85 85 210 225 203 231 -1 1 -54 4 -117
8 -63 3 -126 8 -140 10 -14 3 -65 10 -115 15 -49 6 -102 13 -117 16 -16 3 -40
7 -55 10 -16 3 -53 9 -83 15 -30 6 -68 13 -85 16 -72 12 -310 76 -425 113
-899 289 -1473 814 -1699 1551 -11 36 -28 97 -37 135 -21 94 -24 104 -29 145
-3 19 -7 44 -9 55 -2 11 -7 52 -11 90 -4 39 -9 81 -11 95 -7 38 -6 388 1 453
4 31 5 57 3 57 -2 0 -27 -35 -55 -77z"/>
<path d="M5968 5555 c-2 -1 -46 -5 -99 -8 -231 -14 -523 -102 -749 -224 -69
-38 -241 -148 -280 -179 -118 -96 -180 -152 -270 -243 -100 -102 -191 -203
-186 -208 1 -2 34 -5 72 -8 187 -13 374 -36 499 -60 39 -8 86 -17 105 -20 31
-5 228 -51 255 -59 6 -2 24 -6 40 -11 206 -52 481 -157 689 -263 494 -251 855
-605 1063 -1042 81 -172 166 -455 189 -635 3 -27 8 -59 10 -70 15 -81 22 -413
11 -542 -4 -40 -5 -73 -3 -73 10 0 82 110 126 193 77 147 136 334 158 505 9
75 8 292 -1 367 -41 313 -176 620 -410 935 -39 52 -74 97 -77 100 -3 3 -30 34
-60 69 -58 68 -217 230 -288 294 -98 88 -53 167 128 227 41 13 77 26 79 27 2
1 -8 18 -22 36 -42 55 -84 132 -93 168 -8 33 -8 40 -5 74 2 24 52 43 106 40
68 -3 146 -25 302 -84 238 -91 307 -78 225 41 -77 111 -251 262 -424 366 -86
52 -291 152 -311 152 -7 0 -23 6 -37 13 -23 12 -220 70 -281 83 -106 22 -447
51 -461 39z"/>
<path d="M7436 4645 c-273 -69 -381 -408 -202 -628 44 -54 125 -110 186 -128
219 -64 451 68 500 286 11 47 14 122 7 155 -32 144 -115 245 -243 300 -63 28
-172 34 -248 15z"/>
<path d="M263 4051 c-152 -55 -263 -208 -263 -364 0 -145 86 -293 206 -355
187 -97 422 -31 527 148 126 216 21 493 -217 573 -67 23 -186 22 -253 -2z"/>
<path d="M4803 3958 c3 -7 39 -85 80 -173 96 -206 211 -519 252 -685 2 -8 10
-40 18 -70 16 -61 54 -231 61 -270 8 -53 19 -116 22 -134 2 -10 6 -44 9 -75 4
-31 9 -67 12 -81 9 -45 12 -483 3 -555 -5 -38 -12 -90 -14 -115 -3 -25 -10
-67 -15 -95 -21 -101 -29 -137 -54 -220 -11 -38 -21 -72 -22 -75 -11 -50 -55
-157 -114 -275 -213 -432 -574 -779 -1080 -1037 -63 -32 -110 -58 -105 -59 5
0 18 -2 29 -5 26 -5 264 -6 290 0 11 2 45 7 75 12 30 4 57 8 60 9 3 1 19 4 35
8 17 4 39 9 50 11 23 5 135 41 180 59 113 45 312 164 395 238 115 101 208 200
283 303 20 28 41 56 46 61 24 30 132 221 170 300 91 189 180 445 226 648 13
60 31 119 39 132 42 64 136 36 251 -74 24 -22 45 -41 48 -41 3 0 19 30 37 67
81 173 167 219 224 120 37 -64 56 -136 86 -323 38 -240 86 -300 143 -181 71
147 112 370 110 604 -3 450 -156 889 -428 1229 -51 63 -201 215 -275 278 -113
96 -342 232 -510 303 -139 59 -388 136 -485 150 -16 2 -46 8 -65 14 -49 13
-73 11 -67 -3z"/>
<path d="M4301 3138 c-41 -60 -79 -115 -85 -121 -6 -7 -31 -39 -56 -72 -24
-33 -49 -65 -55 -71 -5 -7 -26 -31 -45 -55 -330 -412 -771 -773 -1190 -975
-168 -81 -400 -163 -510 -179 -25 -4 -47 -8 -51 -11 -4 -2 -31 -6 -60 -10 -30
-3 -57 -8 -61 -10 -10 -6 -205 -18 -288 -18 -76 1 -217 10 -257 18 -11 3 -43
7 -70 11 -74 10 -298 70 -393 105 -204 75 -436 195 -622 321 l-58 40 11 -28
c35 -96 118 -227 219 -348 213 -255 525 -435 876 -504 207 -41 462 -46 716
-15 145 18 435 83 553 124 105 37 155 27 176 -37 17 -53 12 -123 -16 -236 -7
-26 -6 -28 21 -23 92 17 226 4 268 -27 23 -17 24 -63 2 -105 -22 -42 -127
-145 -240 -236 -249 -200 -217 -263 92 -180 146 40 279 98 426 186 428 259
749 674 880 1137 23 84 32 122 50 226 28 155 28 460 1 635 -3 19 -12 69 -21
110 -8 41 -16 84 -18 95 -13 69 -104 352 -115 359 -3 2 -40 -45 -80 -106z"/>
<path d="M5915 1431 c-125 -30 -227 -115 -285 -235 -27 -57 -33 -83 -35 -149
-5 -129 32 -226 119 -311 106 -106 257 -147 401 -111 95 24 210 117 256 207
125 245 -13 540 -279 597 -58 12 -131 13 -177 2z"/>
<path d="M2345 1115 c-285 -67 -398 -405 -214 -635 107 -133 317 -178 473
-101 75 37 145 105 179 175 34 70 45 119 42 197 -8 200 -166 360 -367 372 -35
3 -85 -1 -113 -8z"/>
</g>
</svg>
