<?xml version="1.0" standalone="no"?>
<!DOCTYPE svg PUBLIC "-//W3C//DTD SVG 20010904//EN"
 "http://www.w3.org/TR/2001/REC-SVG-20010904/DTD/svg10.dtd">
<svg version="1.0" xmlns="http://www.w3.org/2000/svg"
 width="480.000000pt" height="480.000000pt" viewBox="0 0 480.000000 480.000000"
 preserveAspectRatio="xMidYMid meet">
<metadata>
Created by potrace 1.14, written by Peter Selinger 2001-2017
</metadata>
<g transform="translate(0.000000,480.000000) scale(0.100000,-0.100000)"
fill="#000000" stroke="none">
<path d="M865 3369 c-22 -4 -55 -10 -73 -13 -18 -4 -67 -18 -110 -32 -301
-101 -536 -350 -623 -659 -27 -96 -33 -143 -33 -265 0 -172 22 -269 96 -429
87 -188 265 -363 463 -455 89 -42 95 -44 160 -61 89 -23 149 -30 260 -29 110
1 157 6 225 24 25 7 52 13 60 15 41 9 168 68 234 109 76 48 198 159 253 231
44 57 99 153 121 211 10 27 22 58 27 69 4 11 9 25 11 30 27 92 42 206 40 298
0 48 0 87 1 87 1 0 10 -15 19 -32 52 -102 188 -150 310 -109 47 16 48 17 51
64 4 48 -3 57 -25 35 -7 -7 -44 -13 -84 -15 -81 -2 -137 20 -157 63 -9 21 -8
24 12 24 228 4 277 6 283 12 13 13 7 96 -9 130 -36 75 -94 111 -179 110 -135
-1 -234 -106 -221 -235 6 -60 -4 -42 -16 27 -42 238 -173 454 -366 600 -122
93 -215 137 -370 177 -86 22 -288 32 -360 18z m1369 -680 c14 -7 32 -26 40
-43 l15 -31 -101 -3 c-55 -1 -103 -1 -105 2 -10 9 49 75 70 79 41 8 56 7 81
-4z"/>
<path d="M4476 2968 c-80 -17 -132 -84 -140 -180 -2 -24 -4 -46 -5 -50 -1 -5
-14 -8 -30 -8 -27 0 -28 -2 -26 -42 2 -24 4 -47 4 -52 1 -4 12 -5 25 -2 31 8
33 0 31 -156 l-1 -128 48 0 c26 0 49 3 49 8 1 4 2 68 3 142 l1 135 42 0 c23 0
44 3 48 6 3 4 7 25 9 48 l3 41 -53 0 -52 0 4 45 c6 77 39 112 94 102 27 -6 27
-5 29 44 0 27 -3 49 -7 50 -4 0 -14 2 -22 3 -8 2 -32 -1 -54 -6z"/>
<path d="M3178 2905 c-2 -2 -27 -5 -55 -8 -71 -7 -131 -40 -171 -91 -42 -57
-59 -116 -57 -202 4 -111 46 -187 130 -235 78 -45 293 -23 296 30 3 52 5 101
2 101 -1 0 -19 -11 -39 -25 -20 -14 -49 -25 -63 -26 -14 0 -34 -2 -43 -4 -26
-5 -90 14 -114 34 -36 29 -54 77 -55 140 -1 70 21 124 64 155 38 28 170 30
210 3 14 -9 28 -17 30 -17 3 0 4 25 3 56 -1 41 -6 58 -19 66 -17 9 -114 28
-119 23z"/>
<path d="M2614 2765 c-39 -20 -44 -20 -44 -6 0 13 -10 17 -50 17 l-50 1 0
-213 0 -214 50 0 50 0 0 143 c0 130 2 145 20 165 39 42 92 42 122 1 17 -22 19
-43 19 -167 l0 -142 52 0 52 0 -2 149 c-2 183 -11 220 -61 254 -51 36 -103 40
-158 12z"/>
<path d="M3531 2779 c-138 -30 -211 -212 -135 -336 93 -151 335 -122 388 46
56 177 -75 329 -253 290z m103 -100 c33 -15 63 -77 60 -123 -8 -98 -80 -145
-162 -105 -21 11 -45 30 -51 43 -32 59 -10 159 41 183 31 15 81 16 112 2z"/>
<path d="M4014 2765 c-40 -20 -44 -21 -44 -5 0 15 -8 18 -47 17 l-48 -2 -3
-212 -2 -213 50 0 c33 0 50 4 51 13 0 6 0 71 -1 143 l-1 131 32 27 c41 34 84
32 112 -6 18 -23 20 -43 21 -167 l0 -141 51 0 51 0 -2 161 c-2 135 -6 166 -22
197 -37 71 -122 96 -198 57z"/>
<path d="M1943 2071 c-47 -39 -38 -139 16 -165 33 -16 85 -6 89 16 3 14 -3 16
-31 11 -28 -4 -37 -1 -51 18 -36 52 -3 114 54 103 23 -5 30 -3 30 9 0 31 -72
37 -107 8z"/>
<path d="M3255 2080 c-34 -13 -47 -37 -47 -85 0 -69 30 -97 97 -93 l50 3 3 46
c3 49 -7 61 -44 54 -11 -2 -22 -4 -26 -4 -13 -2 4 -31 18 -31 8 0 14 -9 14
-20 0 -14 -7 -20 -23 -20 -33 0 -47 18 -47 61 0 45 30 72 68 62 27 -6 50 16
29 29 -16 10 -66 9 -92 -2z"/>
<path d="M2900 2064 c0 -8 -7 -17 -15 -20 -17 -7 -21 -34 -5 -34 6 0 10 -21
10 -46 0 -53 18 -74 56 -66 29 5 32 32 5 32 -34 0 -34 75 0 85 32 10 20 32
-13 26 -5 0 -8 5 -8 13 0 8 -7 16 -15 20 -9 3 -15 0 -15 -10z"/>
<path d="M2122 2043 c-25 -5 -51 -48 -46 -76 13 -82 110 -92 137 -14 8 22 -8
66 -31 83 -18 14 -22 14 -60 7z m51 -52 c6 -25 -10 -61 -28 -61 -18 0 -35 38
-27 60 12 33 46 34 55 1z"/>
<path d="M2256 2039 c-3 -8 -6 -42 -8 -77 -3 -57 -1 -62 18 -62 19 0 22 6 23
52 1 52 12 71 38 61 9 -3 13 -23 13 -59 0 -47 2 -54 20 -54 18 0 20 7 20 64 0
51 -3 65 -17 71 -30 13 -46 14 -63 5 -11 -6 -21 -5 -28 2 -8 8 -13 8 -16 -3z"/>
<path d="M2427 2043 c-4 -3 -7 -37 -7 -75 0 -61 2 -68 20 -68 17 0 20 7 20 49
0 52 16 76 40 61 9 -5 14 -26 15 -57 0 -41 3 -48 20 -48 15 0 19 7 19 35 0 90
-27 125 -74 100 -15 -8 -25 -8 -34 -1 -7 6 -16 8 -19 4z"/>
<path d="M2623 2039 c-40 -15 -49 -63 -21 -116 9 -19 20 -23 54 -23 42 0 61
11 49 30 -3 6 -15 6 -29 0 -19 -7 -28 -4 -42 11 -19 21 -18 21 41 23 36 1 40
3 37 25 -5 48 -41 69 -89 50z m55 -37 c2 -7 -7 -12 -22 -12 -27 0 -35 15 -13
23 17 7 30 3 35 -11z"/>
<path d="M2780 2037 c-35 -18 -49 -77 -26 -111 13 -21 25 -26 56 -26 32 0 40
4 40 18 0 15 -6 18 -30 14 -24 -3 -30 0 -35 21 -10 38 9 65 40 60 28 -6 36 20
9 31 -21 8 -25 8 -54 -7z"/>
<path d="M3407 2043 c-4 -3 -7 -37 -7 -75 0 -61 2 -68 20 -68 17 0 20 7 20 49
0 43 3 51 23 57 12 4 25 11 29 17 12 19 -2 27 -29 16 -17 -6 -30 -6 -38 1 -6
5 -15 7 -18 3z"/>
<path d="M3554 2040 c-74 -29 -42 -154 36 -142 37 5 60 35 60 78 0 51 -48 83
-96 64z m54 -74 c-2 -21 -9 -32 -22 -34 -35 -7 -49 44 -20 73 23 22 46 1 42
-39z"/>
<path d="M3681 2040 c-22 -13 18 -134 46 -138 21 -3 27 9 40 78 7 37 9 35 22
-26 11 -47 16 -55 34 -52 15 2 25 18 40 61 21 64 17 98 -8 77 -8 -7 -18 -30
-21 -52 -8 -44 -24 -34 -24 15 0 19 -7 30 -22 36 -31 12 -34 9 -48 -46 l-13
-48 -9 45 c-11 53 -18 62 -37 50z"/>
<path d="M3067 1926 c-7 -17 1 -26 24 -26 11 0 16 7 15 18 -4 21 -32 28 -39 8z"/>
</g>
</svg>
